# xmcd
#
# Track frame offsets:
#	150
#	70442
#	146464
#	159241
#	208205
#	270580
#	313107
#
# Disc length: 4623 seconds
#
# Revision: 1
# Processed by: cddbd v1.5.2PL0 Copyright (c) Steve Scherf et al.
# Submitted via: audiograbber 1.83.01
#
DISCID=66120d07
DTITLE=Grateful Dead - 78-05-17A Uptown Theatre, Chicago IL
DYEAR=1900
DGENRE=
TTITLE0=Dancing In The Streets
TTITLE1=Drum
TTITLE2=Space
TTITLE3=Terrapin Station
TTITLE4=Not Fade Away
TTITLE5=Around and Around
TTITLE6=Werewolves Of London
EXTD=
EXTT0=
EXTT1=
EXTT2=
EXTT3=
EXTT4=
EXTT5=
EXTT6=
PLAYORDER=
